/* XPM */
static char *_abda87dc4514178a1a20a7b3d22aefavYs6JoOqoj4QGg2u[] = {
/* columns rows colors chars-per-pixel */
"64 64 238 2 ",
"   c #010503",
".  c #040A05",
"X  c #090C06",
"o  c #020609",
"O  c #040B0A",
"+  c #0A0E0A",
"@  c #0B1206",
"#  c #06120C",
"$  c #0C130B",
"%  c #051107",
"&  c #10140E",
"*  c #12190F",
"=  c #040E10",
"-  c #0C0F11",
";  c #051413",
":  c #0C1412",
">  c #0D1A14",
",  c #0B1C1B",
"<  c #051819",
"1  c #121513",
"2  c #141A14",
"3  c #141C1B",
"4  c #1A1E1A",
"5  c #171A16",
"6  c #2F190E",
"7  c #1C221C",
"8  c #14221E",
"9  c #06211C",
"0  c #21251E",
"q  c #2D2619",
"w  c #312819",
"e  c #091B21",
"r  c #1C1E21",
"t  c #0C2726",
"y  c #132424",
"u  c #1D2323",
"i  c #182729",
"p  c #1A3636",
"a  c #15302E",
"s  c #222522",
"d  c #242924",
"f  c #242B2B",
"g  c #2A2D2B",
"h  c #272828",
"j  c #2B322D",
"k  c #242C32",
"l  c #292C32",
"z  c #2C3332",
"x  c #2E393C",
"c  c #263736",
"v  c #323432",
"b  c #3B3D3C",
"n  c #353A39",
"m  c #323329",
"M  c #463927",
"N  c #4F3929",
"B  c #3C403C",
"V  c #3A4139",
"C  c #47473C",
"Z  c #574C38",
"A  c #684B3D",
"S  c #173F40",
"D  c #2A3D43",
"F  c #363D43",
"G  c #194C4D",
"H  c #274746",
"J  c #344343",
"K  c #3C4342",
"L  c #38474A",
"P  c #374B53",
"I  c #275859",
"U  c #355658",
"Y  c #2B4D4F",
"T  c #3C655F",
"R  c #3A6564",
"E  c #397676",
"W  c #266260",
"Q  c #464948",
"!  c #4C524D",
"~  c #55544D",
"^  c #464C53",
"/  c #485757",
"(  c #525552",
")  c #555A5B",
"_  c #5A5D5C",
"`  c #585956",
"'  c #504E53",
"]  c #625F57",
"[  c #5B635E",
"{  c #43625D",
"}  c #676458",
"|  c #796453",
" . c #4A5B63",
".. c #525F65",
"X. c #476A69",
"o. c #566667",
"O. c #44726D",
"+. c #456C73",
"@. c #5D6C72",
"#. c #4A7577",
"$. c #567977",
"%. c #636664",
"&. c #646A6A",
"*. c #6B6E6B",
"=. c #686967",
"-. c #69716D",
";. c #697675",
":. c #777978",
">. c #6D6B6D",
",. c #8A776B",
"<. c #816550",
"1. c #38837D",
"2. c #56837B",
"3. c #4C857A",
"4. c #7D817B",
"5. c #63827C",
"6. c #86857B",
"7. c #998375",
"8. c #7C7F81",
"9. c #6E7C84",
"0. c #3F918B",
"q. c #588789",
"w. c #569B97",
"e. c #4E908D",
"r. c #668888",
"t. c #7D8382",
"y. c #768588",
"u. c #67979A",
"i. c #789798",
"p. c #738E92",
"a. c #58A69D",
"s. c #4FA097",
"d. c #65A29D",
"f. c #749EA5",
"g. c #56A6A1",
"h. c #5DAEB1",
"j. c #58B3A6",
"k. c #76A6A9",
"l. c #68B3AC",
"z. c #73B4AE",
"x. c #77B8B9",
"c. c #66ADAD",
"v. c #77C5BC",
"b. c #7BCCCD",
"n. c #828484",
"m. c #8B8E8C",
"M. c #868988",
"N. c #8C928C",
"B. c #969289",
"V. c #8A9699",
"C. c #929495",
"Z. c #9A9E9A",
"A. c #989A97",
"S. c #818B94",
"D. c #9DA19D",
"F. c #A6A69B",
"G. c #B7A797",
"H. c #9D99A1",
"J. c #88A4A7",
"K. c #9CA5A6",
"L. c #8AABB4",
"P. c #9DAEB5",
"I. c #88B6BA",
"U. c #95B7BC",
"Y. c #84B0AF",
"T. c #A3A5A3",
"R. c #A9ACA7",
"E. c #B7B4AB",
"W. c #ABB4B5",
"Q. c #BCBEBB",
"!. c #B5B8B5",
"~. c #AEADAB",
"^. c #A39DA7",
"/. c #C8B8A8",
"(. c #86C2BD",
"). c #99C2BE",
"_. c #BCC1BB",
"`. c #C2C2BD",
"'. c #CECABF",
"]. c #D7C9BD",
"[. c #8EBDC2",
"{. c #94BBC3",
"}. c #A4BCC5",
"|. c #BABEC2",
" X c #87C7C8",
".X c #97C8CB",
"XX c #97D7D8",
"oX c #8AD0D0",
"OX c #B8C3C3",
"+X c #AECBD6",
"@X c #A3D4D7",
"#X c #B0C9D2",
"$X c #8CDEE1",
"%X c #91DAE0",
"&X c #A8E3EC",
"*X c #C3C5C1",
"=X c #CBCDCB",
"-X c #C8CAC5",
";X c #CAD0CA",
":X c #D4D2CA",
">X c #CED3D3",
",X c #D3D5D1",
"<X c #DBDCD4",
"1X c #DBDDDB",
"2X c #D5DBD8",
"3X c #D3C9C8",
"4X c #DDE2D9",
"5X c #E3E3DC",
"6X c #E7E5D9",
"7X c #D0DBE3",
"8X c #E1DFE2",
"9X c #DCE4E2",
"0X c #DCE6E8",
"qX c #CAE6F2",
"wX c #E5E9E4",
"eX c #EAEBE5",
"rX c #E3EBEB",
"tX c #ECECEA",
"yX c #E5E5E2",
"uX c #F1EEE2",
"iX c #EEF1EC",
"pX c #EFF2E5",
"aX c #F2F3EC",
"sX c #F7F9EE",
"dX c #F8FAEE",
"fX c #F9FAEE",
"gX c #F8F4E7",
"hX c #F5F6F1",
"jX c #F7F9F2",
"kX c #F6F9F3",
"lX c #F8F9F3",
"zX c #F9FAF1",
"xX c #F9FAF4",
"cX c #F8FBF4",
"vX c #F9F9F5",
"bX c #F9FAF3",
"nX c #F7F6F5",
"mX c #E0D4C6",
/* pixels */
"lXlXxXxXxXxXdXdXdXeX,.C.) s .           .       .       . . . . .     . o o o + g %.H.=XhXxXnXlXxXlXxXxXxXxXxXxXxXxXxXxXxXxXxXaX",
"xXxXxXxXxXxXxXlXaX,X%.h $ .   .             .   . . o . . . . . . .     . .   . : v %.C.1XaXnXlXxXlXxXxXxXxXxXxXxXxXxXxXxXxXxXaX",
"xXxXxXxXxXxXxXlX1XF.b + . .   .                 . O .   .   . .               . + 4 Q _ T.eXxXxXxXlXxXxXxXxXxXxXxXxXxXxXxXxXxXaX",
"xXxXxXlXxXlXxXwXZ.b O         .                 O . . .     . .     .     .   . o 1 n / 8.yXhXxXxXlXxXxXxXxXxXxXxXxXxXxXxXxXxXiX",
"xXxXxXlXlXlXwX:.r o   .                     . . . . . .     . .             . . o $ n ( :.1XhXjXlXlXxXxXxXxXxXxXxXxXxXxXxXxXxXiX",
"lXlXlXxXlXwXn.5 O .   . .                   . . . . . . .   . .   . .   .     . . O z &.8.W.nXxXlXdXxXxXxXxXxXxXxXxXxXxXxXxXxXaX",
"dXlXlXlXsXN.4 . . .                   . . . . X + + $ X . . . .                 o o s ;.C.^.8XvXlXdXlXxXxXxXxXxXxXxXxXxXxXxXxXaX",
"dXlXxXjXQ.h . .                 .   . . o O O + $ $ $ $ X . . .                 o   O b C.A.|.hXlXdXlXxXxXxXxXxXxXxXxXxXxXxXxXaX",
"jXlXxX1X! + .                       . . o O + $ $ $ $ $ $ X . .                 o O . 1 *.C.M.E.tXfXdXlXlXxXxXxXxXvXxXxXlXxXxXaX",
"cXlXjXE.5 . .                         . . . $ $ $ $ $ $ $ + X .               . o o o O h :.:.M.`.aXlXlXlXxXxXxXxXlXxXxXxXxXxXaX",
"xXjXaXM.*                             . . . + $ $ $ $ $ # $ X               . . O O .   + f Q ' :.-XaXxXlXxXxXxXxXxXxXxXxXxXxXaX",
"lXxXtX*.*                           . . o O X $ $ $ 1 $ $ $ .         .       o O + O     o 2 4 n *.=XjXjXxXlXdXlXxXlXxXlXxXxXaX",
"jXxXaX*.1 .                             o O X $ $ $ 1 $ $ # X . . .     . . 3 z c 3 O .   .   o : g >.,XhXlXlXdXdXhXjXdXxXxXxXaX",
"jXxXaX*.$                               o O X $ $ $ 1 $ $ $ + X . . . . + k ^ /  .^ c > . . o o o 1 K n.<XhXlXdXdX<XsXlXlXlXlXaX",
"lXlXaX=..                               . . X + $ $ $ $ $ $ $ . . . o , J / / / ^ P J f # O o . o O u ` ~.tXlXcXsX`.5XlXlXlXlXtX",
"xXxXaX*..                               . . . X $ $ $ $ % $ $ X . O ; L [ o.y.V.P.!.R.t.V : o       $ j :.:XsXlXlX`.-XtXhXjXlXtX",
"xXxXtX*..                     .         . . . . @ $ $ $ @ $ + X O % i / -.OX9X0XrXrXrX9XW.K .     . X + v m.yXhXlX<XQ.1XtXjXxXtX",
"lXdXtX%.                . . . o . . . .       . $ @ @ @ $ $ $ $ % O j [ ;X9XOX&.Q _ _.wX9Xn.$ .   . . . $ B R.aXhXeXR.Q.5XlXjXiX",
"lXlXtX~ .         . . O : : : : + o . . .   . X $ @ @ @ $ $ $ $ $ $ f M.2XT.u + g + 5 m.1XZ.2 . . . . . + s *.=XhXhX`.`.1XjXlXtX",
"lXdXyXQ         . o > f n n n x s : O       . X $ @ @ @ $ $ $ $ $ # j T.2X(   K 2Xt.. K =XZ.1 . . . . . . 1 ! A.eXhX5X!.eXxXxXtX",
"lXlX5Xv     . . o > J / &.t.m.m.;.! u . o . . . $ $ @ @ $ @ $ + X $ g T.,Xb . n =Xm.. K _.:.O . .     . . + v :.:XaXaX`.tXhXhXtX",
"lXlX1Xg   .   . : J ) y.|.>X2X,XQ.A.( 2 . o . X $ $ $ @ $ $ @ + + + 7 C.>X} O + g 4 + *.T.! + .     . .     4 %.E.eXaX:XeXhXhXtX",
"lXlX5Xv .     . c o.;.OX0X2XA.*.:.N.:.z + O . . $ $ @ @ @ $ @ + + + 1 *.=X-X*.v d s ( N.&.u + .     .       + n m.<XhXtXtXhXhXtX",
"lXlXeX~ . . . + L o.K.0X2X' - v - 4 %.Q $ . . . @ $ @ @ $ $ @ @ @ $ $ v D.=X,X*XW.D.M._ s & + + . .     . . . 2 %.`.aXaXhXhXhXtX",
"lXlXsX6..     + L ^ W.rX!.1 F 9X_ $ [ ` 1 . X $ @ @ @ $ $ $ @ @ @ $ $ 1 v n.T.Z.m.*.B 4 1 1 $ $ + . . . . .   + Q T.eXxXjXhXhXtX",
"xXlXxXZ.X     + F J W.rXW.+ z OX( 5 :.[ 5 X @ @ $ @ $ $ $ $ @ @ @ $ $ 1 7 d V C n s 4 2 2 > $ $ + . .     . . . d :.<XjXjXjXhXtX",
"xXxXxXQ.+     o u x K.0X>XK o r 1 ) A.[ 7 $ $ $ $ @ @ @ $ $ @ @ @ $ 1 5 7 s d s 7 2 2 2 > 2 $ $ + .           . 5 ( _.hXjXhXhXtX",
"xXxXxX:X+     . : y ;.2XrX>XZ.m.Z.!.Z.! 7 * $ $ $ @ @ @ $ $ @ @ @ $ 1 7 0 d d s 7 2 3 2 > > $ $ # .           . 1 Q T.aXjXjXhXtX",
"lXlXlX;X$   .   . > x V.1X9X1X>XW.K.:.v s 5 * $ $ @ $ $ $ * $ @ $ $ 1 5 7 0 s 0 7 2 2 > > > $ # % . . .       . + z m.aXlXhXhXtX",
"lXlXdX-X$       . ; 3 b V.*X>X!.C.&.b g s 7 2 $ $ @ & * 2 2 1 $ $ $ $ 1 5 4 4 5 5 2 1 $ $ $ # + . . . .         + g :.9XnXhXhXeX",
"lXlXsXQ.$     . o # : 7 g b Q b z g g s 7 7 2 $ $ $ $ * 2 2 1 $ $ @ + $ $ 1 : $ $ $ + + X + O . . . . .         . g *.2XnXhXjXeX",
"jXjXeXA.X     . . o # : : 1 2 2 4 7 7 7 7 7 1 $ $ $ $ $ 2 2 1 $ $ X . . . . . . O O O . O .   . . . .           . s %.*XnXxXjXtX",
"jXjX4X4.X     . . . $ $ $ $ 1 2 2 4 7 7 4 2 $ . . . $ $ 1 2 1 $ $ X .               .   .   . . . . .           . s _ Z.eXhXjXtX",
"jXjX<X*.X     . . . $ $ $ $ 2 2 2 5 5 2 2 $ O . . . X $ $ $ $ $ $ X . . .                       . .             . 7 ! 4.<XlXxXeX",
"lXhX1X` +     . . X + $ 1 1 2 5 2 2 1 $ + . . .   . X X $ $ $ $ $ . .                                         . + 7 n *.*XjXjXtX",
"lXlX<X! X     . . + $ $ 2 2 2 1 : $ $ + . . .     . . $ $ $ $ $ $ .                                   .       . + 5 g ( T.hXhXtX",
"jXhX<XQ +     . . $ $ $ $ 1 1 : : $ + .           .   $ $ $ $ $ $ .                             .         . . . . : d B t.hXxXtX",
"lXaX<XQ +     . X $ $ @ $ $ $ $ + + .               . X $ $ $ $ $ . .                             . . . O + O O . + 4 j %.1XxXtX",
"lXaX<XQ &     . X $ @ @ $ $ $ X .         .         . . + $ $ $ $ . .                             . + u z u + . . + : 7 ( =XxXtX",
"lXsX1X` &     . + $ @ @ $ X . .         . .           . X $ $ $ $ . .                             O g &.&.u o . . X + $ B *XvXtX",
"xXdX5X:.$     . + $ $ @ . .     . .                     . X $ $ + .                             : F 9.J.o.3 O . . . . X n `.kXtX",
"lXlX6XF.1 + . X + $ $ @ .       . . .             .     . X $ $ +                           . 3 ^ S.W.V.L $ O   . . . + n `.kXtX",
"lXxXaX-Xv + + + + $ $ @ . .     . .   .   .               . X + + . .           . .       + y @.P.#XP.@.f o .   . . . + n `.jXtX",
"xXlXgX6X:.& + + $ @ $ $ X .       . .                     . . . . . .           . .     : J y.}.#X}.i.P > . . . . . . $ Q -XkXtX",
"lXlXdXgX_.d $ @ @ @ % X O : 2 +                             . . O .                 O > / J.#X+X}.J.@.y o   .   . . . 5 ( ,XxXtX",
"lXlXlXdXeX=.2 $ $ @ X . + d V j 1 . .   .           .       . o . . . . . . . . o + f @.J.{.}.{.L.r.D O . . .   . . X 0 *.wXkXtX",
"lXlXxXxXsXQ.v X . . . . + u ( [ ! 7 O .   .   .     .       . .   . . . .   . o # k o.i.L.{.U.L.i.U , o   . . o . . . j Z.hXkXtX",
"lXlXxXlXxXyXn.4 +     . . : K &.y.-.c : .                 . . o o o O + $ $ : 3 J L  .r.U.{.{.k.X.y O o   . . o . . + Q _.kXkXtX",
"lXlXxXlXxXlX,X( 1         O 8 / ;.i.i.o.i o . .       . . o O : 3 z n f u d u z L i U f..X.XI.q.p O .       . o . + 7 *.4XkXkXtX",
"lXcXlXlXlXlXjXE.b + .   .   # p X.r.Y.L.r.c ; # o ; > 8 y y c J z u 5 O . O O = < e +. X.X{.f.U ; . .   .       . $ V D.iXkXkXtX",
"lXlXxXxXlXxXjXyXm.s   .     O , Y +.u.I.).Y.$.Y U { / H p y , : O     . O + o = i H k..XI.k.9.p O     .       . $ j [ =XjXkXkXtX",
"lXlXxXlXxXlXlXsX1X>.2   .   . # y U r.k.[.{.Y.u.$.Y a 9 ; ; = + .     .     o < U q.x.x.d.e.W t o     .     + 1 h Q N.wXjXkXkXtX",
"dXlXlXxXlXlXlXhXaX=X` 1 o . . $ , p #.f.x.[.I.O.t t t , 8 : + + + . . . X + i H q.l.x.l.g.e.I e             1 g b %._.hXkXkXkXtX",
"lXsXaXsXsXaXaXhXsXeXE.! 1 + X : , t U q.k.I.{.i.p ; y > : # . . . . . . . y X.3.a.g.j.h.w.E G < o .         u b ` N.4XhXkXxXkXtX",
"jXsXeXeXaXtXiXaXtX<XeXR.( 0 $ : : < a R u.k.I.U.9., = O o . .   . # # . . t O.w.e.s.g.0.E I p ; o . .   . > v ( :.!.iXkXxXhXjXtX",
"lXlXlXaXlXtXtXhXeX/.sX5XA.~ j : : # , p +.q.k.[.L.P i y ; O O O , J J p < H 3.R G z.s.1.W G t ; : : .   : z ! *.N.2XjXnXtXQ.aXtX",
"lXlXlXaXlXaXiXhXiXB.pXaX`.4.! s $ + # < D +.u.x. Xu.$.J.5.o.a H 2.r.$.Y p T R S O.(.s.1.I S t , r : o . 5 Q %.t.W.iXxXaXE.] 5XtX",
"jXxXhXhXsXaX,XeXaX6.<XpX6.B.M.` g : + = e H q.z. Xz.G +.p.i.2.2.X.p a t < < < U z.l.c.E I H a i y O . 1 x ) :.Z.4XjXjX5X~ ~ E.yX",
"xXxXxXlXjXeX6.5XgXD.!.pX6.V F.C.) f - 1 = t R d.v. Xu.Y p J a t y ; O O O , R (.l.s.l.E +./ D J k O + l ) :.A.-XiXjXdXE.w | B.5X",
"lXdXjXjXcX'.] F.gX:XR.pXF.0 0 C.H.%.l h i < a O.z.oXXXI.Y i e < < < , y L i.(.l.j.b.z.$.r...L ^ x 3 f ) y.K.Q.wXnXjXjX6.w 7.,.5X",
"lXdXlXcXdXE.Z } uXuXR.eX-Xm + h C.R.>.^ ^ D e c r.I.XX@XI.Y.u.q.q.u.I.Y.k.x.a.j.v.XXk.J.V...F l 3 r Q n.W.=X8XnXxXjX<XM N 7.| :X",
"lXdXjXlXgXF.Z M ].gXE.6X4XC + + 5 C.=Xn.=.;.Q k / J.@X@XoX X Xx.x. XoXw.W e.g.oXXXoXI.#XV. .x i y z -.|.9XaXnXxXxXsXB.q M ,.| 3X",
"lXdXdXlXgX7.Z M G.mX/.:X6XZ X X X 1 8.=X~.T.M.Q K p.{.@XXXXXb.h.h.b.b.x.h.x.oXXX.X.X+X#Xy.P k i k Q A.rXhXxXvXxXlX<XC 6 6 A | ].",
"lXlXlXlX6X} N N ,.].E.E.6X} @ . . . 1 :.8XyX*X8.Q @.#X@X&X&X%Xb.b.$X$X$XXXXXXXXX+XqX7XP.o.D k k n %.Q.nXnXxXlXxXlXZ.m 6 6 N <./."
};
