/* XPM */
static char *_cd078c5175d4420e783fe1f98b10a83AgFdoLpvbwzo4wRP[] = {
/* columns rows colors chars-per-pixel */
"64 64 221 2 ",
"   c #030113",
".  c #03001B",
"X  c #08011F",
"o  c #050123",
"O  c #090125",
"+  c #03012F",
"@  c #0A012B",
"#  c #050132",
"$  c #0B0134",
"%  c #070138",
"&  c #0B013A",
"*  c #0D0B3A",
"=  c #110134",
"-  c #14023C",
";  c #19013F",
":  c #0E103F",
">  c #0E0045",
",  c #0E0149",
"<  c #150242",
"1  c #190143",
"2  c #13024C",
"3  c #1C034D",
"4  c #150B45",
"5  c #150152",
"6  c #1C0254",
"7  c #150C51",
"8  c #160159",
"9  c #1C015B",
"0  c #19125B",
"q  c #240155",
"w  c #280155",
"e  c #220857",
"r  c #22015B",
"t  c #2B015A",
"y  c #220859",
"u  c #211A52",
"i  c #1E0162",
"p  c #1C0467",
"a  c #250163",
"s  c #290263",
"d  c #25016C",
"f  c #2A016E",
"g  c #240C67",
"h  c #34016F",
"j  c #3E016F",
"k  c #23146A",
"l  c #260171",
"z  c #2A0174",
"x  c #27017D",
"c  c #2D017D",
"v  c #2C0B7A",
"b  c #25097E",
"n  c #330271",
"m  c #3F0171",
"M  c #30007F",
"N  c #39017E",
"B  c #2B1879",
"V  c #311C7D",
"C  c #1E276B",
"Z  c #282770",
"A  c #41026E",
"S  c #580C68",
"D  c #400172",
"F  c #660F7C",
"G  c #6B137C",
"H  c #2E0282",
"J  c #2C018D",
"K  c #300081",
"L  c #390082",
"P  c #34018B",
"I  c #3B018C",
"U  c #30148F",
"Y  c #330192",
"T  c #390194",
"R  c #35029B",
"E  c #3B019D",
"W  c #360B94",
"Q  c #3A159D",
"!  c #361498",
"~  c #2E1788",
"^  c #2D2580",
"/  c #302283",
"(  c #342295",
")  c #372899",
"_  c #373692",
"`  c #3C01A2",
"'  c #3F02AA",
"]  c #3D0BA5",
"[  c #3F17A8",
"{  c #44008B",
"}  c #480297",
"|  c #58039C",
" . c #640E80",
".. c #75128B",
"X. c #6E0E92",
"o. c #791296",
"O. c #7E0D97",
"+. c #4E01A2",
"@. c #4101AB",
"#. c #4D01AB",
"$. c #4205A9",
"%. c #5401A4",
"&. c #5C01A6",
"*. c #5300AB",
"=. c #5D01AD",
"-. c #580DAF",
";. c #4012AF",
":. c #5C03B0",
">. c #5B07B2",
",. c #4214B2",
"<. c #4318B6",
"1. c #4418B8",
"2. c #4A17B7",
"3. c #5D12B6",
"4. c #6201A6",
"5. c #6201AD",
"6. c #6D01AC",
"7. c #6706AB",
"8. c #7401AE",
"9. c #7A04AD",
"0. c #7A0AAB",
"q. c #7909A8",
"w. c #6C01B1",
"e. c #6F0DB2",
"r. c #6401B0",
"t. c #7601B1",
"y. c #7501B1",
"u. c #7900B1",
"i. c #7900B2",
"p. c #7901B1",
"a. c #780BB1",
"s. c #472EAF",
"d. c #492EAF",
"f. c #4731AC",
"g. c #4523B6",
"h. c #4C26BD",
"j. c #472DBA",
"k. c #482BBC",
"l. c #482BB4",
"z. c #502EBC",
"x. c #5722BD",
"c. c #4633BB",
"v. c #4D32BB",
"b. c #4736B3",
"n. c #5131BB",
"m. c #5138BF",
"M. c #7F2DB8",
"N. c #673CBC",
"B. c #7C3AB8",
"V. c #135789",
"C. c #3B4394",
"Z. c #60599B",
"A. c #7B759B",
"S. c #4347AB",
"D. c #4A4BBF",
"F. c #4C42BD",
"G. c #545DBE",
"H. c #5456BF",
"J. c #4758A6",
"K. c #6B43BC",
"L. c #7544BA",
"P. c #6D5BA7",
"I. c #3D3BC2",
"U. c #552CC3",
"Y. c #4F34C2",
"T. c #4A3CC9",
"R. c #5034C4",
"E. c #5E3CC2",
"W. c #5336C8",
"Q. c #523CCB",
"!. c #5738C5",
"~. c #613CC2",
"^. c #334DC6",
"/. c #4B4EC4",
"(. c #4F4FC8",
"). c #554EC3",
"_. c #5342C9",
"`. c #4B52C6",
"'. c #4D51CA",
"]. c #4E5EC7",
"[. c #5450CE",
"{. c #4F62CC",
"}. c #5061CC",
"|. c #96179A",
" X c #B7069E",
".X c #A71899",
"XX c #BF169C",
"oX c #B91C9C",
"OX c #AD0C9D",
"+X c #8205AE",
"@X c #840CAA",
"#X c #8C0DAC",
"$X c #890BA7",
"%X c #930EAA",
"&X c #8A14A9",
"*X c #9B16A5",
"=X c #9B15AA",
"-X c #961AA9",
";X c #991AAC",
":X c #9415A6",
">X c #850CB2",
",X c #A51BA7",
"<X c #AC1EA6",
"1X c #A41AA9",
"2X c #AB1DA8",
"3X c #A416A8",
"4X c #B21CA4",
"5X c #B619A6",
"6X c #9E24AB",
"7X c #813CB9",
"8X c #A522A9",
"9X c #D30F8D",
"0X c #D50A94",
"qX c #C3149A",
"wX c #CE1196",
"eX c #CD0497",
"rX c #EA028C",
"tX c #E40491",
"yX c #C516B4",
"uX c #818DBE",
"iX c #B0A7CB",
/* pixels */
"=.#.@.@.@.I c 5 % # # % # # + + + + + + + + + + + + + + + + + + + + + + + + + + + + + + + + + + + + + + + + + + + + + + + + # # ",
"t.t.y.y.8.6.4.*.T 6 K P p > # + + + + + + + # # # # + + + + + + + + + + + + + + + + + + + + + + + + + + + + + + + + + # + + 2 % ",
"u.u.u.u.t.t.y.=.*.%.#.@.` P 5 # + + + % & > 8 9 9 2 & # # % # + + + + + + + + + + + + + + 2 # + + + + + + + + + + + 7 & # # # + ",
"9.t.t.u.u.u.t.t.t.y.y.6.#.@.J & + + % 5 d l 9 z M c c z z 8 & + + + + + + + + + + + + + + # + + + + + + + + + + + + % % % f.p & ",
" X+Xu.u.u.u.u.u.t.5.w.y.w.#.` 2 # # 9 c c K z z M M M M z < + # + + + + + + + + + + + + + + + + + + + + + + + + + + + # # 8 % 2 ",
"qX Xi.u.u.u.u.u.t.*.#.#.#.@.E 2 # > c M M K M M M M M M M d % # + + + + + + + + + + + + + + + + + + + + + + # # # # # , # # # & ",
"tXOX9.9.9.u.u.8.=.*.*.#.@.@.R < < i c K K K K K K K K K M c > & % & & % & & & & % & & % & & & & % & & % & % , > % % 0 B & A.> 2 ",
"0X%X+X=X=Xp.u.u.y.6.#.$.@.@.' R P H K K K K M M K K K K K c % # % % # # # # # # # # # # # # # # # # # # # % & & & % % % % $ * u ",
"<X*X%X1X2X#Xu.9.8.%.T K ` @.` H x c z P K M d 9 c M M M M d > > > > > > > > > > > > > > > > > > > > > > > > > > 5 < > > > > Z.P.",
"<X<X2X1X1X#Xw.*.E P K K P ' ' ` Y d P c M c 5 > 8 c M M c 5 > > > > > > > > > > > > > > > > > > > > > > > > > > > > > > > < 2 J.",
"<X<X<X1X#X9.5.#.@.E K M P ' ` P K c K d M c 9 > > 2 9 9 2 > > > > > > > > > > > > > > > > > 2 , > > > > > > 8 , > > > , C > > , ",
"<X<X<X%X9.6.5.:.#.' K K E @.` K K K M M M d , > > > > > > > > > > > > > > > > > > > > > > > > > > > > > > > 2 > > > 2 , , 7 uX, ",
"<X=X%X9.u.t.6.5.=.#.` T @.@.' P K K K K M i > > > > > > > > > > > > > > > > > > > > > > > > > > > > > > > > > > > > 5 2 > k > > ",
"1X#X+X9.u.u.8.5.=.#.' ` @.@.@.E K K K K K c > > > > > > > > > > > > > > > > > > > > > > > > > > > > > > > > > > > > > > > > > > ",
"=X#X@X6.t.6.=.=.=.:.@.@.@.@.' T T K K K K M 9 > > > > > > > > > > > > > > > > > > > > > > > > > > > > > > > > > > > g 2 > > 9 2 ",
"#X#X8.6.6.6.5.=.=.=.=.=.=.*.@.@.P T K K K M z 2 , > > > > > > > > > > > > > > > > > > > > > > > > > > > 9 6 > > > > > , B < Q J ",
"#X8.5.6.5.y.5.5.=.=.=.*.=.@.' @.T Y Y E T K z 9 8 , > > > > > > > > > > > > > > > > > > > > > > > > > > > > > > > > > < > > 8 2 ",
"5.5.w.5.5.6.5.5.=.=.=.:.@.@.@.@.` ` E K K H c a i 8 2 > > > > , 2 2 , > > > > > > > > > > > > > > > > > > > > > > > < iX> > > > ",
"6.6.5.5.5.5.5.=.=.=.#.@.@.@.@.@.@.T K K K K M c d d d 8 > > > a c c d 2 > > > > > > > > > > > > > > > > > > > > > > > > > > > > ",
"t.u.t.5.5.=.=.=.5.=.@.@.@.@.@.@.@.T P K K K K H M c c 9 2 2 9 c M M M z , > > > > > > > > > > > > > > > > > > > > < 7 > > > > > ",
"u.u.u.6.5.=.=.=.#.@.#.=.#.@.@.' @.@.' ` T K K E T K K z d l z M K K c i 9 > > > > > > > > > > > > > > > > > > > > > 0 > > > > > ",
"t.t.t.t.5.5.5.5.5.4.#X1Xq.#.@.' ` ' @.@.' P P @.E K K K M M M M K K z d 9 8 > > > > > > > > > > > > > > > > > > > > > > > > > > ",
"*.*.*.*.*.*.*.4.>X=X=X#X+Xw.=.} P P ` @.' P K P K K K K K K K K K K c l 9 9 9 2 > > > > > > > > > > > > > > , V., > > > > > > > ",
"t.t.t.t.t.t.t.t.9.8.9.u.t.u.t.4.} { I K K K K K K M M K K K K K K K M M l a c z 2 > > > > > > > > > > > > > > , > > > > > 5 2 > ",
"9.9.8.y.y.y.y.6.6.5.t.t.y.8.8.y.8.6.| | } } K I K M M K K K K K K K K K M M M c i > > > > > > > > > > > > > > > > > > , a c i 2 ",
"@.#.@.@.@.@.@.=.t.5.r.#.@.T K E E T K K K K H K M M K K K K K K K K K K K K M c 5 2 , 2 2 5 5 5 5 5 5 5 5 5 5 5 5 5 5 l d M M c ",
"@.' P ' @.@.@.*.5.5.#.@.@.P K K K K K K K K K H M M K K K K K K K K K K K K K M z 9 d z z c c c c c c c c c c c c c M c c c c M ",
"@.` s ' @.@.@.@.*.#.@.@.@.P K K K K K K K K K K M M K K K K K K K K K K K K K M M c M M M M M M M M M M M M M M M M M M M M M M ",
"@.R = K @.@.@.@.@.' ' ' E K K K K K K K K K K K M c H K K K K K K K K K M K K K K K K K K K K K K K K K K K K K K K K K K K K K ",
"@.d o 9 E @.@.` ` E T Y P P P K K H K K K K K K H 8 K P K K K K K K K M M K K K K K K K K K K H H H H H H K P P P P P P P K K M ",
"@.K O 6 E @.@.f R ' @.` ' ' ' ` T E E E E E ` E Y 3 T ` T K K K K K K K K K K K K K K K K K P E E E E E E ` ' ' @.@.@.@.@.` E K ",
"` a X @ R @.` r J ' ' c ` @.@.` z ` @.@.@.@.@.' Y < z ' ' ` @.@.@.@.@.@.$.@.@.@.@.@.@.@.@.@.@.@.@.@.@.@.@.@.@.@.@.@.@.@.@.@.' P ",
"E 8 . @ R ' E - 2 ` ' 9 E ' ` T 1 ` @.@.' @.@.' P - 3 ` @.@.@.@.@.@.@.@.@.' ' ' @.@.@.@.@.@.@.@.@.@.@.@.@.@.@.@.@.@.@.@.@.@.@.' ",
"Y 6 X o 3 I H O $ E ` 6 a E 9 x $ H ' E ' @.E ` 6 o = P ` ` ` ` ` ` ` ` E K K K H K K H H H H H H T ` E ` ` ` ` ' @.@.@.@.@.@.@.",
"3 O . X & E - . X c J @ & Y @ @ . < E a ` ` d R - @ @ x ` ` ` ` ` ` ` ` ` ` ` ` ` ` ` ` ` ` ` ` ` ` ` ` ` ` ` ` ' @.@.@.@.@.@.@.",
"- o . O - d x X O H < . O 3 o o . 8 R 6 x z < Q 5 o @ 9 R ' @.@.@.@.@.@.@.@.@.@.@.@.@.@.@.@.@.@.@.@.@.@.@.@.@.@.@.@.@.@.@.@.@.@.",
"$ X . . @ 8 $ . . - $ . X $ X o o @ < @ @ $ @ < O . X a ] g.g.<.$.@.' ' ' ' ' ' ' ' ' ' ' ' ' ' ' ' ' ' ' ' ' ' ' ' ' ' ' ' @.@.",
"O . . . . @ . . . X o . X o . @ . . @ . o o o # . . . = v l.c.c.g.<.,.,.<.,.,.<.,.,.,.,.;.;.,.<.,.,.,.,.<.,.;.<.,.,.,.,.;.;.,.,.",
". . . . . . . . . . . . . . . . . . . . . . . . . . . - v b.c.c.c.j.j.j.j.j.j.j.j.j.j.j.j.j.j.j.j.j.c.c.c.l.j.j.c.c.c.l.< < 7 b ",
". . . . . . . . . . . . . . . . . . . . . . . . o . @ 2 B D././.`.`.`.`.`.`.`.`.`././././.`.`.`.`.`./.D.^ @ - / _ D.S.+ . . O o ",
". . . . . . . . . . . . . . . . . . . . . . . . . . < a r b./.`.`.`.`.`.`.`././.F.U g v U F./././.`.`.~ $ . . . o 4 * . . . . . ",
"= o . . . . . @ . o . X o @ . . o . o . . . o . . . O a 9 9 ) D.].`.S.C.C.C._ p 9 $ o X . Z Z 5 _ C.9 - o . . . . . . . . . 4 X ",
"< @ o . . . . o $ @ # @ o % % o o . . . . . . . . . . @ O o @ * : : @ . . . . . X . . . . . . . . . . . . . . . o . X o .   O   ",
"< & % & & & & & & & & & & & & & & & & & & & & & & & & & & & & & & & % % & & & & & & & & & & & & & & & & & & & & % & & % % % & $ ",
"f d d d d l z f z l l z z z l l l d l l d l l l l d f f l l d d l l d d d l l l l l f l l l d d d l l f z f l l d a d d d d d d ",
"&.} L I K M M K K H K P P W Q ! ! H H H H H H c H H c H H H c c H H c H c H K P W ! ( ( ( ( ( ( ( ( W P P K H H c c c c c c c c ",
"eX.X.X.X|.:X&Xz.z.Y.Y.R.R.W.!.!.!.n.n.n.n.n.n.n.n.n.n.n.v.v.n.v.v.v.v.n.v.v.v.n.n.m._.H.G.G.G.).)._.R.n.n.v.v.v.v.v.v.v.v.v.v.v.",
"0X X.X#X0.6.6.7.>.=.=.:.=.+.} P H H H H H K H K c r r 6 3 6 3 3 3 3 3 3 3 3 3 3 3 3 3 6 6 6 6 3 3 3 3 3 3 3 3 3 3 2 2 2 2 2 2 2 ",
"0X3X*X@X0.8.5.5.5.5.=.5.=.%.I K K K K K H K K K c z c z z z s Y Y Y Y Y Y Y Y Y Y Y Y Y Y Y Y Y Y Y Y Y Y Y Y J d.s.s.s.s.d.d.s.",
"rXwXXX<X*X$X0.7.5.=.=.3.U.W.W.Q.R.,.[ Q P K K P W Q Q [ ,.,.<.1.,.1.<.1.<.1.<.<.1.1.1.<.1.1.1.1.,.1.1.1.1.<.<.1.<.1.1.1.1.1.k.Q.",
"rX9XXX<X2X1X-X&Xa.8.5.=.3.x.U.U.W.W.Q.Q.Y.Y.R.Y.W.Q.Q.Q.W.W.W.Q.Q.Q.Q.Q.Q.Q.Q.Q.Q.Q.Q.Q.Q.Q.Q.Q.Q.Q.Q.Q.Q.Q.Q.Q.Q.Q.Q.Q.Q._._.Q.",
"wXXX4X<X=X=X*X&X@X0.q.q.6.7.>.-.2.2.h.h.h.h.h.h.h.h.h.h.h.h.h.h.h.h.h.h.h.h.h.h.h.h.h.h.h.h.h.k.h.h.h.h.h.h.h.h.h.h.k.k.T.^.I.h.",
"<X<X5XyX<X<X<X<X<X1X:X:X:X:X;X;X;X;X-X;X;X;X;X;X;X;X;X;X-X-X-X-X-X-X-XN.M.M.N.N.B.(.'.'.'.'.'.'.(.'.`.'.'.'.'.'.'.'.'.`.'.'.'.'.",
"qXqXoX4X<X<X<X<X<X<X1X*X=X<X2X2X2X<X<X<X2X2X<X<X<X<X<X<X<X<X<X<X<X<X<X8XB.L.B.7XL.L.K.K.~.E.E.~.K.K.K.K.~.E.E.E.E.].).}.}.}.}.}.",
"tX5X4X4X4X4X<X2X2X2X<X<X<X<X<X<X<X<X<X<X<X<X<X<X<X<X<X<X<X<X<X<X<X<X<X<X8X8X6X6X1X=X#X+X9.t.9.9.p.9.9.i.t.9.9.t.9.e.y.e.e.e.e.e.",
",X,X,X,X,X|.O.X.X.............................................O.@Xo.G F F  .X.O.$X@X@X9.9.8.9.9.8.9.8.9.9.9.9.9.9.9.9.9.9.9.9.9.",
"e y e e y e q 6 6 6 6 r 6 q r q r 9 q r 6 q 9 6 9 r q r q q r q w q 1 1 1 1 q s s w q q w w w w q q q q q q q q q q t t t t t t ",
"S S A n f f f z f z z z n m m m m m m m m m m m m m m m m m m m j m m m A A m m m m j m m m m m m h h h h h h h h n N I I I | *.",
"q.9.u.8.6.6.6.6.6.6.6.6.8.9.t.9.9.9.9.9.9.9.9.9.9.9.9.9.9.9.9.9.9.9.9.9.9.9.9.9.8.6.=.*.=.=.=.*.*.*.*.#.#.#.#.#.#.#.#.#.#.#.*.*.",
"$Xu.t.9.t.t.t.t.y.8.6.9.t.t.t.t.t.t.t.t.t.t.u.u.u.u.u.u.9.9.u.9.9.u.u.u.u.u.u.t.y.w.5.=.=.*.*.*.*.*.*.*.*.*.*.*.*.*.*.*.*.*.*.*.",
":X8.6.4.&.%.%.%.%.{ { L L L L L L L L } %.%.8.8.6.8.8.6.6.6.6.8.6.6.6.6.6.6.8.8.8.8.6.6.6.7.%.+.+.+.+.*.*.*.%.%.*.#.*.+.K K K K ",
"V g 1 1 r q a a a a r a r a a a a a a a a a a a s a 1 1 1 1 1 1 1 1 1 1 1 1 1 1 1 1 1 1 1 1 1 1 1 1 1 r a a a a a a a a a a a a ",
"c z 1 1 1 1 1 1 1 1 1 1 1 1 1 1 < < < 1 1 1 1 1 < < < 1 1 1 1 1 1 1 1 1 1 1 1 1 1 1 1 1 1 1 1 1 1 1 1 1 1 1 1 1 1 1 1 1 1 1 1 1 ",
"a a a r r V V V V V V V V V 9 9 9 6 6 9 6 9 6 6 r 3 ; < < < < < < < - - - - - - - - - < < - < - < < < < < < < < < < < < < < < < "
};
