/* XPM */
static char *ad04154d401242f5a59b458e306dbcd3wyNqLgu7PmHsZWA8[] = {
/* columns rows colors chars-per-pixel */
"64 64 143 2 ",
"   c #020204",
".  c #06050A",
"X  c #08070C",
"o  c #0A090E",
"O  c #0C0C12",
"+  c #0F0D19",
"@  c #100F17",
"#  c #100E19",
"$  c #111016",
"%  c #12111D",
"&  c #141523",
"*  c #181525",
"=  c #141827",
"-  c #151728",
";  c #1A1729",
":  c #161A2B",
">  c #1B1A2C",
",  c #171E30",
"<  c #1C1E32",
"1  c #201E33",
"2  c #1C2135",
"3  c #1D243B",
"4  c #1D283E",
"5  c #20253C",
"6  c #1D2641",
"7  c #1D2A45",
"8  c #1E2F4D",
"9  c #1F2E4D",
"0  c #1E2D4E",
"q  c #1E2C4F",
"w  c #1E2E4F",
"e  c #1F2E4F",
"r  c #1E2D4D",
"t  c #1D2C4B",
"y  c #1F304E",
"u  c #1F304E",
"i  c #1F2D50",
"p  c #1E2E50",
"a  c #1F2F50",
"s  c #1F2F51",
"d  c #1D2F53",
"f  c #1F2F53",
"g  c #1D2F57",
"h  c #1E2F51",
"j  c #1D3050",
"k  c #1D3051",
"l  c #1E3152",
"z  c #1F3253",
"x  c #1D3154",
"c  c #1E3054",
"v  c #1F3155",
"b  c #1F3354",
"n  c #1E3255",
"m  c #1D3156",
"M  c #1E3257",
"N  c #1E3153",
"B  c #1D3358",
"V  c #1C3259",
"C  c #1F3358",
"Z  c #1F325A",
"A  c #1F3159",
"S  c #1E3459",
"D  c #1E345B",
"F  c #1D355A",
"G  c #1E335E",
"H  c #1F355C",
"J  c #1E345D",
"K  c #1E355E",
"L  c #1F365F",
"P  c #1E345B",
"I  c #1F395E",
"U  c #202741",
"Y  c #202E51",
"T  c #212F52",
"R  c #203051",
"E  c #203052",
"W  c #213153",
"Q  c #203054",
"!  c #213155",
"~  c #203256",
"^  c #203255",
"/  c #20335B",
"(  c #203459",
")  c #21355A",
"_  c #21345B",
"`  c #1F3660",
"'  c #1E3664",
"]  c #1F3661",
"[  c #1F3860",
"{  c #1F3861",
"}  c #1F3B63",
"|  c #1E3964",
" . c #1F3A65",
".. c #1F3A67",
"X. c #1F3C66",
"o. c #1E3A63",
"O. c #1F3A69",
"+. c #1F3B6A",
"@. c #1F3C68",
"#. c #1D3C6A",
"$. c #1E3D6B",
"%. c #1F3E6D",
"&. c #1F3D6F",
"*. c #1F3C6A",
"=. c #1F3E72",
"-. c #203560",
";. c #203760",
":. c #203763",
">. c #203661",
",. c #203961",
"<. c #203962",
"1. c #203965",
"2. c #203A6B",
"3. c #203C6B",
"4. c #203C6C",
"5. c #213D6C",
"6. c #213D6D",
"7. c #203F6D",
"8. c #203C6E",
"9. c #213D6F",
"0. c #203F6E",
"q. c #203D6B",
"w. c #203E72",
"e. c #213E72",
"r. c #1F406D",
"t. c #1E4070",
"y. c #1F4375",
"u. c #1F4376",
"i. c #1F467C",
"p. c #1F487E",
"a. c #20406F",
"s. c #204071",
"d. c #214172",
"f. c #224273",
"g. c #214174",
"h. c #214275",
"j. c #204478",
"k. c #21467B",
"l. c #21437A",
"z. c #21487E",
"x. c #204780",
"c. c #214A83",
"v. c #214D89",
/* pixels */
"> > > > > > > > > > > > > > > > > > > > > > > > > > > > > > > > > > > > > > > > > > > > > > > > > > > > > > > > > > > > > > > > ",
"> > > > > > > > > > > > > > > > > > > > > > > > > > > > > > > > > > > > > > > > > > > > > > > > > > > > > > > > > > > > > > > > ",
"> > > > > > > > > > > > > > > > > > > > > > > > > > > > > > > > > > > > > > > > > > > > > > > > > > > > > > > > > > > > > > > > ",
"> > > > > > > > > > > > > > > > > > > > > > > > > > > > > > > > > > > > > > > > > > > > > > > > > > > > > > > > > > > > > > > > ",
"> > > > > > > > > > > > > > > > > > > > > > > > > > > > > > > > > > > > > > > > > > > > > > > > > > > > > > > > > > > > > > > > ",
"> > > > > > > > > > > > > > > > > > > > > > > > > > > > > > > > > > > > > > > > > > > > > > > > > > > > > > > > > > > > > > > > ",
"> > > > > > > > > > > > > > > > > > > > > > > > > > > > > > > > > > > > > > > > > > > > > > > > > > > > > > > > > > > > > > > > ",
"> > > > > > > > > > > > > > > > > > > > > > > > > > > > > > > > > > > > > > > > > > > > > > > > > > > > > > > > > > > > > > > > ",
"> > > > > > > > > > > > > > > > > > > > > > > > > > > > > > > > > > > > > > > > > > > > > > > > > > > > > > > > > > > > > > > > ",
"> > > > > > > > > > > > > > > > > > > > > > > > > > > > > > > > > > > > > > > > > > > > > > > > > > > > > > > > > > > > > > > > ",
"> > > > > > < > > > > < > > > > > > > > > > > > > > > > > > > > > > > > > > > > > > > > > > > > > > > > > > > > > > > > > > > > ",
"> > > > < > < > > > > < > > < > < > > > > > : > > > > > > > > < > > > > > > > > > > > > > > > > < > > < > > > > > > > > > > > > ",
"< > < > > > > > > > > < > > < < < > < > < < > > < > > > > > > > > > < > > > > > > > > > > > > < < < > < > < > > > > > > < > > < ",
"< > < < > > > ; > < > < > > < < < < < > < < > > < > > < < > > > > < < < > > < < > < > < < > > < < < > < > < > > < > < > > > < < ",
"< > < < > > < > < < > < < > < < < < > > < < > > < > > > < > > > < < < > > > < < > < > < < < > < < < > < > < > > < > > > < > < < ",
"2 > < < > < 2 > < < > < < > > < < < > < < < > > < > < < < > < > < < < > > > < < > 2 < < < < > < < < > 2 > < > > < > < < < > ; * ",
"2 < 2 < < 2 < > < < > < < > < > > > < < < < > > < > 3 2 < < < > < < < > > > < < < < 2 5 < < > 2 2 2 < 2 > < < < < > < 2 < > > * ",
"2 < 2 2 < 2 2 > < < > < < < 2 3 < < 2 2 < 2 < 2 3 < 3 3 2 < 2 > < < < < < > < < > < 2 3 2 2 2 3 2 2 2 3 > < 2 < 2 2 2 2 2 * * * ",
"2 < 2 3 2 3 2 2 < < > < < < < 2 < < 3 3 3 7 3 2 3 2 3 4 2 < < > < < < < 3 < < < < < < 3 3 3 6 3 2 2 2 3 < < 3 2 r 7 2 2 2 * * * ",
"2 2 3 3 2 3 3 < 3 < > < < < 2 < 3 3 3 3 t r 6 6 6 3 r t < < < > < < 3 2 6 2 < < < < < 3 6 2 q 7 2 2 2 6 3 < 3 2 r t 2 2 3 * * * ",
"< 3 3 3 2 3 3 2 7 2 > < < < < 6 r 7 3 3 r E 6 r Q 6 ' 6 < < < > 2 3 t 6 3 3 < < < < < < 6 < 6 7 2 2 2 7 6 < 3 3 Z r < 2 2 , > ; ",
"< 3 6 4 3 3 3 3 t 2 > < < < < t a r 6 3 7 E 7 r Q r 3 < < < 1 < 2 2 3 6 3 6 < < < < < < 3 3 5 3 3 2 2 6 r < 3 3 Z t 2 3 2 7 > > ",
"< 3 7 3 3 3 6 3 c 2 > < < < < c c c 6 3 6 E 7 t 3 2 < < < < < > 3 3 7 7 6 r 2 < < < < < < 7 < 3 3 2 3 t r < 2 7 t t 6 6 3 7 > > ",
"< 3 6 7 3 6 t 3 -.a > < < < < t K +.r 3 3 r 7 6 < < < < < < < 3 6 6 t S 7 E 3 2 < < < < < 2 2 3 y 2 3 r a 3 > g 6 3 r 3 3 7 > > ",
"< 3 7 3 7 3 S 3 a S > < < < < r ,.f.Q 3 2 7 r 2 < < < < < < 3 7 7 7 t #.t Q 3 3 < < < < < < < 6 l 6 3 a l 6 t 3 3 c S 3 3 ( < > ",
"3 t r r c 7 S 3 2 Z < < < < < 7 r a l 3 3 6 6 < < < < < 2 < 6 r 6 t c #.t Q r 3 3 3 < < < < < t c t 3 l a t a t. .` K 3 3 %.6 3 ",
"7 a 7 t G r S 3 2 7 3 < < < < 3 6 l c 4 3 3 2 < < < < < 2 2 7 Q 6 ,.-.q.r c Z 6 a K 2 < < < < 3 a r 3 E Q r r X.h.` T t 3 3.7 q ",
"7 a 7 t -.l c 6 r t 3 < < < < 2 Z 4.` 4 2 < < < < < < 7 3 2 6 c r f.K 4.( ( K 7 K y.6 < < < < < 3 r 3 E Q l t } 4.4. .t 3 +.r c ",
"a S l 4.#.} }  .c 6 6 < < < < 2 Z k.%.3 < < < < < E 7 6 3 3 6 Q r f.K  .( -.,.7 a 4.r > < < < < < t 3 l Q Z c K e.k. .c 3 4.a c ",
"r t t f.l.k.%.f.Z 6 2 < < < < 2 c x. .2 < < < < t r.7 5 t 6 r Q S k.K 1.( 1.r.6 S c.l < < < < < < 3 4 E ( K K l.w.x.K 3 2 K K c ",
"3 2 K r.p.z.q.q.( r 2 < < < < < a c.` 2 < < < 3 3 2 3 l l 6 T Q -.1. .#.Z 3.} t S i.l 2 < < < < < < 3 Q Q } Z k.f.z.f.r q 7 } a ",
"< 3 } r.p.x._ a E t 2 < < < < 3 c 4.7 < < < 7 a.t 2 } 1.l t Q Q q. .+.+.l l f.a S i.Z 7 < < < < < < 3 Q Q a } v.h.x.l.#.r c c 3 ",
"< r  .f.h.1.l t r r 3 < < < < 7 r 3 2 < < < t x.c 3 c 4.l r E Q 1.3 _ 3.l 7 k.a K i._ 7 2 2 < < < < 2 T c K f.h.l.v.l.K Z G t < ",
"3 l X.1.S c Q l r r 3 < < < < t t < < < < 3 q.c.K t a =.l 7 3 l #.r 7 Z r Z y.a K z._ 7 t 7 < < < < < 7 c 3.p.I l.v.h.K i.h.#.> ",
"2 T l c Q Q Q l l Q t < < < < a c < < < < 3 c.c.1.c a e.r t t Q q.t < < 3 S } c } x.( t t t 2 < < < < 3 l } k.q.l.k.Z l y.k.k.< ",
"< r c Q Q c c l :.c S < < < < 6 6 < < < 3 6 x.c.} } a e.r r q 7 _ 6 < < 3 7 1.l q.l._ a t c 6 < < < < 2 t l Z a.=.t 3 6 e.l.e.> ",
"< 7 a Q c S S 4.=.Z r < < < < 6 < < < 3 7 t a.z.,.S Z ` r r c c 3 < < < < 2 4.l l.x._ l r ( r 2 < < < < < < < 3 7 3 3 6  . .` < ",
"< r 7 ( 4.K r ' 1.7 2 < < < < 2 < > < r 7 6 #.#.l r 6 r 6 U r 3 < < < < < <  .7 a.z.( Q r a 6 < < < < < < < < < < < < t 1.4.+.> ",
"3 t 3 6 7 3 6 t 3 < < < < < < < < 2 6 E r 3 r 6 2 < < < < 2 3 2 > < < < < < 3 t y.y.,.c r 3 < < < < < < < < < < < < < 7 K h.` > ",
"3 3 2 < Q K l c 3 < < < < < < < < 2 r 7 7 < < < < < < < < < < < < < < < < < < 6 h.y.} r 2 < < < < < < < < < < < < < < < G 1.Z > ",
"2 6 r y Z l 4 4 2 > < < < < < < < 3 7 2 < < < < < > < < < < < < < < < < < < < 3 1.=.( < < < < < < < < < < 2 2 < < < < < 7 ` r > ",
"< t t t t y t 7 4 < < < < < < < < 2 < < < < < < < < < < > < < < < < > < < < < 2 S -.t < < < < 3 < < < < < < 2 < < < < < < l 7 > ",
"< 6 2 2 4 7 4 6 < > > > > > > < 2 < < > > < < < < < > , < < > < < < < < < < < 2 t t 2 < < < > 2 2 < < < < < 2 < 2 , < < < 3 3 > ",
"> 2 2 2 2 2 < 2 > : > > > : > > > > > > > > > > > > > 2 < < > > > > : : > > > < 2 4 < : > > > < 2 2 > > > : 2 > 2 , > > > > > * ",
": 2 2 2 2 < > > > > > > > : > : > - > - > : > > : : > 2 2 2 : : > > > > : - : : 2 2 > : > : : : 2 2 > : > > > > , < > : > > > * ",
": : : : : : : > > > > > > : : : : : : : > : : , , : : 2 , , < : > > > > > > > : > , > > : : : : : , > > > > : : , : : : > > * & ",
"= : & - = = & & & : : : : : = = - & = = : : > , , : : : : : : - - : : - = - = = : : - : = = : = , , = : : : & : : : : : & : & & ",
": : : : : & & & & & & & & & & & & & & & : : : : : : = = = : : & & & = : & & & & : : & & & & = = = : = & & & & = : : : & & & & % ",
"& = & & & & & & & & & & & & & & & & & & = & & = = = & = & = & & & & = & & & & & & & & & & & = & & & & & & & & & - & & & & & & % ",
"% & % % % % & % % % & % % % % & % & % % % & & & & & % & % & & % % % & % % & % & % % % & & % & & & % % % % % % & % % % % % % & % ",
"% % % % % % % % % % % % % % % % % % % % % % % % % % % % % % % % % % % % % % % % % % % % % % % % % % % % % % % % % % % % % % % # ",
"# # $ $ $ # $ $ $ $ # # # $ $ $ $ $ $ $ $ $ $ $ $ $ $ # $ $ $ $ $ $ $ $ $ $ $ $ $ $ $ $ $ $ $ $ $ $ $ # # # @ @ $ $ # + + # O O ",
"O O O + O O O + O O O O O O O O @ O + O O + O + O O O O O + + O # O + O + @ + + + # # # + O + O O O O O O O O O + O O O O O O O ",
"O O O O O O O O O O O O O O O O O O O O O O O O O O O O O O O O O O O O O O O O O O O O O O O O O O O O O O O O O O O O O O O O ",
"o O O o o O O O O O o O O O o O O o O O o O O O O O o O o o o O O o o o O o O O O o o O O o o o o o o O O O O O O O O o o o o o ",
"X o o o X o o o o o o o o o o o X X o o o o o o o o o o o o o o o o o o o o o o o o o o o o o o o o o o o o o o o o o o o o o o ",
"X X X X X X X X X X X X X X X X X X X X X X X X X X X X X X X X X X X X X X X X X X X X X X X X X X X X X X X X o X X X X X X X ",
". . . . . . X . . . . . . . . . . . . . . . . . . . . . . . . . . . . . . . X X . . . . . . . . . . . . . . . . . . . . . X . . ",
". . . . . . . . . . . . . . . . . . . . . . . . . . . . . . . . . . . . . . . . . . . . . . . . . . . . . . . . . . . . . . . . ",
"  . .                                             .         .   .                                                               ",
"                                                                                                                                ",
"                                                                                                                                ",
"                                                                                                                                ",
"                                                                                                                                "
};
