/* XPM */
static char *_07e333be6154368c1e9cb46795046b3a7Q2JfaiagPRRpDs[] = {
/* columns rows colors chars-per-pixel */
"64 64 45 1 ",
"  c #121922",
". c #161F28",
"X c #172126",
"o c #182227",
"O c #17212A",
"+ c #19242C",
"@ c #1E2C2D",
"# c #1A2631",
"$ c #1D2B34",
"% c #1F2F38",
"& c #1F3039",
"* c #202F2F",
"= c #20302F",
"- c #202F32",
"; c #213131",
": c #223433",
"> c #213234",
", c #233737",
"< c #243735",
"1 c #263935",
"2 c #273C37",
"3 c #283C37",
"4 c #223338",
"5 c #21323B",
"6 c #233639",
"7 c #243639",
"8 c #22353E",
"9 c #253A3A",
"0 c #273D3B",
"q c #253A3C",
"w c #263C3E",
"e c #283E39",
"r c #283E3C",
"t c #2A413A",
"y c #2A413C",
"u c #2B443E",
"i c #2C443E",
"p c #243740",
"a c #263B40",
"s c #263C41",
"d c #283E40",
"f c #2D4640",
"g c #2F4840",
"h c #304B42",
"j c #314C42",
/* pixels */
"                                                                ",
"                                                                ",
"                                                                ",
"                                                                ",
"                                                                ",
"                                                                ",
"                                                                ",
"                                                                ",
"                                                                ",
"                                                                ",
"                                                                ",
"                                                                ",
"                                                                ",
"                                       X                        ",
"                                                      +         ",
"                                  +oO$+   .  .               XX ",
"                             +X ++ @++ ++++  +      +X ++X   +X ",
"                     XX o X   +++*<0@X$90q%. O     X+@+o@@      ",
"    O              ++    X@@+@@;9:<1+ei00w8. O     @@@@@@@X XX X",
"      .             @X,,@@@@@@*,17+$giu00w& .O     9:@@@@@@+++++",
"                   @,,iy;@@@@@;96+<0ifr00w8##      1t@@@@@@@+@@@",
"   ++++.+           +;ej2@@@@@+ 9,9000000w8%#      @i*@@@@@@@+@@",
"  X,;>%O#         +  @ej3@4+ X;+rui,00000wa4O      +0@@@@@@@@+@@",
"  X996% O         ,00y<:; @@@@:egjjy,<000dp4# ..   +:tg*@@@@@@+$",
"  X90q4#.        +000yggy@@@@@1jjjjy09;:9r8%#O#    +yjg@@@@@@@XX",
"  O90q%$ .       $000yhji$@@@@;jjjg00000ed8$%%O    ;egy;@@@@@@+@",
"  +007%#..      X900efjji@@@@@=jjjr00000ws4$8%O    ,0r0<@@@@@@+@",
"  +00q4OO       +r00eyyg3@@@@@@ijge00000wa4$%#     ,0009*@@@@@@@",
"  $w0w% .       $000909y1@@@@@@tiy000000wa4%$      +0000:@@@@@@@",
"  +00q%         X;;1;;19:@@@@@@:y0000000wa8%$O      90001@@@@@@@",
"  O90q%O        X@@@@*,:;@@@$@@*00000000wa4%O       >00w9*@@@@@@",
"  X904$.        +@@@@@@>>--$$ @@;9010000wa4$+       $000,@$$$@@@",
"   ,9%#         @@@@@@@%%44$  @@@*;*100094$#        +0w96>%%4$%$",
"   +>O.         @@@@@@>4$#O   @@@@@@;19,$+#         Xqaq%48$$4&%",
"    O           @@@@@@68+     O@@@>;-;+$%O           488844%%#%%",
"                @@@@@;88O.    X@@>>46$448O           +#%$#OOOOOO",
"  .#+          .X@@$;-4%O ..  +@@+84%+&8%            . O OOO. O.",
" O$%++         O#>;->>%$#O.   X@$#O$4$8%                 OO#OOO ",
" #4848%       .%##8664%&#+    ++OO+ O%#$#                OOO.   ",
"%#$44++$       O4+444###++ O   %.%   $+%.                O#$O   ",
"+%$+$%4O         $%%%848444+                               .    ",
"O  . OOO          $+4%+$8++%.                                   ",
" #+                  %%%+48+                                    ",
"                                                                ",
"                                                                ",
"                                                                ",
"                                                                ",
"                                                                ",
"                                                                ",
"                                                                ",
"                                                                ",
"                                                                ",
"                                                                ",
"                                                                ",
"                                                                ",
"                                                                ",
"                                                                ",
"                                                                ",
"                                                                ",
"                                                                ",
"                                                                ",
"                                                                ",
"                                                                ",
"                                                                "
};
